<?xml version="1.0" encoding="utf-8"?>
<!-- Generator: Adobe Illustrator 26.0.3, SVG Export Plug-In . SVG Version: 6.00 Build 0)  -->
<svg version="1.1" id="Layer_1" xmlns="http://www.w3.org/2000/svg" xmlns:xlink="http://www.w3.org/1999/xlink" x="0px" y="0px"
	 viewBox="0 0 291.8 291.8" style="enable-background:new 0 0 291.8 291.8;" xml:space="preserve">
<style type="text/css">
	.st0{display:none;fill:#110A72;}
	.st1{fill:#FF1D79;}
	.st2{fill:#FF7BB7;}
	.st3{fill:#CE1963;}
	.st4{fill:#FFD24A;}
</style>
<g>
	<path class="st0" d="M233.2,136.1l-69-20.1c-3.2-0.9-4.5,3.2-2.8,9.3l9.1,32.7c2.1,7.4,6.7,14,10.2,14.3l72,7.8
		c1.9,0.2,1.4-4.2-1.1-9.7l-11.1-24.8C238.3,140.9,235.1,136.6,233.2,136.1z"/>
	<path class="st0" d="M153.9,116.2l-73,20.5c-2.1,0.6-4.9,5.2-6.3,10.4l-7,25.3c-1.5,5.3-1,9.4,1,9.1l71.2-9.6
		c3.2-0.4,7.2-6.3,8.9-13.1l8.1-32.3C158.5,119.9,157.2,115.3,153.9,116.2z"/>
	<polygon class="st0" points="161,285.4 76.3,269.2 80.3,138.4 162.3,117.4 	"/>
	<polygon class="st0" points="159.7,118 241.8,151.4 240.8,263.3 158.4,285.9 	"/>
	<path class="st1" d="M236.4,48.7c0,36.8-31.1,62-53.2,75.3c-4.7,2.8-7.6-2.4-11.7-4.5c-6.5-3.2-13.3-5.1-13.3-5.1s-0.3,6-6,0.7
		c-2.9-2.8-13.4,8.2-18,5.2c-21.4-14-47.5-38-47.5-71.7c0-24.3,18.1-44,40.4-44c14.5,0,27.3,8.4,34.4,20.9
		c7.1-12.5,19.9-20.9,34.4-20.9C218.4,4.7,236.4,24.4,236.4,48.7z"/>
	<path class="st2" d="M223.6,44.4c0.1,0,0.2,0,0.2,0c0.8-0.1,1.3-0.9,1.2-1.7c-2.1-12.9-9.9-23.6-21-28.8c-0.7-0.3-1.6,0-1.9,0.7
		c-0.3,0.7,0,1.6,0.7,1.9c10.2,4.7,17.4,14.7,19.3,26.6C222.2,43.9,222.8,44.4,223.6,44.4z"/>
	<path class="st2" d="M223.8,56.1c0.7,0,1.4-0.6,1.4-1.3c0.1-1,0.2-2,0.2-3c0-0.8-0.6-1.5-1.4-1.5c-0.8-0.1-1.5,0.6-1.5,1.4
		c0,1-0.1,1.9-0.2,2.8c-0.1,0.8,0.5,1.5,1.3,1.6C223.7,56.1,223.8,56.1,223.8,56.1z"/>
	<path class="st3" d="M177.1,122.4c22-13.4,52.5-38.5,52.5-74.8c0-20.7-13.2-38.1-30.9-42.8c21.1,1.5,37.8,20.5,37.8,43.9
		c0,37.5-32.4,63.1-54.6,76.1"/>
	<path class="st3" d="M108.8,69.9c0.2,3.7-4.8,5-6.4,1.7c-3.3-6.7-5.3-14-5.3-22.1c0-17.3,12.7-31.3,28.4-31.3
		c3.4,0,6.6,0.6,9.7,1.9c2.9,1.1,2.9,5.2,0,6.3C123.8,30.6,107.2,41.7,108.8,69.9z"/>
	<path class="st4" d="M76.2,182.2c-0.5,15.9-1.7,32-1.7,48c0,7.7,0.2,15.6,0.5,23.3c0.2,4.7-3.1,13.1,0.2,17.1
		c2.8,3.3,10.4,3.7,14.6,4.8c7.4,2,15.1,3,22.5,5c13.1,3.6,28.3,4.6,41.8,6.6c6.7,1,14.7-3,20.9-4.6c9.6-2.5,19.1-4.6,28.8-6.7
		c6.5-1.4,12.6-3.3,19-5c3.6-0.9,14.8-2,17-5.4c5.9-8.9,4.6-23.9,4.6-33.8c0-8.1-0.1-16-0.7-24.1c-0.6-8.2-0.3-16.1-0.3-24.3
		c3,0.2,6.1,0.2,8.5-0.7c10.2-3.8-1.2-21.2-3-25.8c-1.9-4.7-5.1-8.7-8-12.9c-2.1-3-3.3-7-6.4-9.3c-3.1-2.3-9.1-3.2-12.9-4
		c-7.5-1.6-17.5-3.6-24.5-6.5c-5-2.1-11.5-2-16.8-3.4c-3.8-1-8.3-2.4-11.7-4.3c-1.5-0.9-2.7-1.9-4.4-2.5c-1.6-0.6-3.3-1-5-1.1
		c-2.3-0.2-4.6,0-6.9,0.6c-2.3,0.6-4.4,1.8-6.8,2.2c-1.6,0.2-3,0.2-4.6,0.7c-2.1,0.6-4.1,1.3-6.1,1.9c-6.3,2.1-12.5,4.4-18.9,6.1
		c-7.2,1.8-14.1,4.6-21.2,6.9c-5.4,1.8-11.2,1.7-16.3,4.4c-0.5,0.3-0.8,0.6-1.1,1c-0.7,0.2-1.2,0.6-1.4,1.2c-2.7,9-6.6,17.8-9,26.9
		c-1.2,4.5-4.3,11.6-1,15.7C67.7,181.8,71.9,182.2,76.2,182.2z M176,124.2c9.5,3,20.1,5,29.9,6.6c5.7,0.9,11.1,3.3,16.8,4.5
		c4.5,0.9,9.2,2,10.9,5.9c1.4,3.2,4,5.8,5.9,8.7c4.4,6.6,7.1,13.6,10.5,20.6c5.6,11.3-8.4,8-14.8,7.3c-5.3-0.5-10.3-0.9-15.5-1.7
		c-11.6-1.8-23.4-3.6-35.1-4.8c-12.2-1.2-12.2-19.9-14.4-27.8c-2.4-8.7-6.4-17.1-8.9-25.8C166.4,119.6,170.9,122.6,176,124.2z
		 M167.6,154.9c0.9,5.9,5.2,19.9,13.5,20.4c12.5,0.8,25.3,3,37.5,5c6.1,1,11.7,1.3,17.8,1.9c0.8,0.1,1.8,0.2,2.7,0.3
		c0.1,10.9-0.5,21.3,1.1,32.2c2.1,13.9,0,30.5-2.4,44.2c-1,5.5-11.1,6.5-15.9,7.7c-7.1,1.8-13.8,3.9-21,5.4
		c-6.6,1.4-12.9,2.3-19.5,4.1c-7.6,2.1-14.5,4.6-21.9,5.4c0-6,1.4-11.7,1.6-17.7c0.3-8.2,0.4-17.1,2-25.2
		c2.3-12.3,1.3-25.4,1.2-37.8c-0.2-23.2-2.1-46.6-3.5-69.8C163.6,138.8,166.4,146.6,167.6,154.9z M156.6,138.1
		c0.6,23.3,3.3,46.7,3.6,70c0.1,10.9-1,21.5-1.6,32.2c-0.8,13.7-3.5,27.7-3.4,41.4c-1.6,0-3.3-0.1-5-0.3c-12.4-1.7-26.2-2.7-38.1-6
		c-5.2-1.4-11.3-3-16.6-3.8c-3.7-0.6-7.1-1.6-10.7-2.4c-7.4-1.5-6.4-3.8-5.3-9.5c2.4-12.6-0.6-27.1-0.1-40c0.5-12.5,1.2-25.3,1-37.8
		c2.2-0.2,4.1-0.3,5.3-0.4c7.7-0.6,18.9-1,26.4-3.3c14.4-4.4,28.7,1,36.9-12.8c4.4-7.4,5.1-17.1,7.2-25.2
		C156.2,139.6,156.4,138.8,156.6,138.1z M70.5,167.2c0.4-9.4,6.2-19.4,9.2-28.6c0.2-0.1,0.4-0.1,0.6-0.2c6.6-3.7,18-5.3,25.6-7.4
		c11-3,22.2-6.6,33-10.4c3.8-1.3,8.4-1.4,12.2-2.6c8.6-2.8,3.3,11.1,2.5,14.9c-2,10.4-3.6,24.4-9.8,33.4c-4.9,7.2-19.5,6.5-28.2,7.8
		c-9.1,1.3-18.4,1.8-27.5,3.3c-4.4,0.8-8.8,0.6-13.3,0.7C66.6,178.3,70.3,171.4,70.5,167.2z"/>
	<path class="st4" d="M74.4,86.3c-1,0-1.9-0.4-2.6-1.3c-1-1.3-24-31.7-31.4-48.1c-0.7-1.6,0-3.6,1.6-4.3c1.6-0.7,3.6,0,4.3,1.6
		c7,15.7,30.4,46.5,30.6,46.8c1.1,1.4,0.8,3.5-0.6,4.5C75.7,86.1,75,86.3,74.4,86.3z"/>
	<path class="st4" d="M234.2,102.7c-0.7,0-1.3-0.2-1.9-0.6c-1.5-1-1.8-3.1-0.7-4.5c10-14,24.8-49.6,25-50c0.7-1.7,2.6-2.5,4.2-1.8
		c1.7,0.7,2.4,2.6,1.8,4.2c-0.6,1.5-15.2,36.7-25.7,51.3C236.2,102.2,235.2,102.7,234.2,102.7z"/>
	<path class="st4" d="M65.5,124c-0.1,0-0.2,0-0.3,0c-1-0.1-25.5-2.1-42.6-7.7c-1.7-0.6-2.6-2.4-2.1-4.1c0.6-1.7,2.4-2.6,4.1-2.1
		c16.3,5.4,40.8,7.4,41.1,7.4c1.8,0.1,3.1,1.7,3,3.5C68.6,122.7,67.2,124,65.5,124z"/>
	<path class="st4" d="M237.7,121.4c-1.1,0-2.1-0.5-2.7-1.5c-1-1.5-0.5-3.5,1-4.5c14.5-9.2,31.6-26.9,31.7-27.1
		c1.2-1.3,3.3-1.3,4.6-0.1c1.3,1.2,1.3,3.3,0.1,4.6c-0.7,0.7-17.8,18.5-32.9,28.1C238.9,121.2,238.3,121.4,237.7,121.4z"/>
	<path class="st4" d="M45.7,93.3c-0.2,0-0.5,0-0.7-0.1c-0.5-0.1-12.2-2.7-25.5-15.5c-1.3-1.2-1.3-3.3-0.1-4.6
		c1.2-1.3,3.3-1.3,4.6-0.1c11.9,11.4,22.3,13.8,22.4,13.9c1.7,0.4,2.9,2.1,2.5,3.9C48.6,92.3,47.2,93.3,45.7,93.3z"/>
</g>
</svg>
