<?xml version="1.0" encoding="utf-8"?>
<!-- Generator: Adobe Illustrator 26.0.3, SVG Export Plug-In . SVG Version: 6.00 Build 0)  -->
<svg version="1.1" xmlns="http://www.w3.org/2000/svg" xmlns:xlink="http://www.w3.org/1999/xlink" x="0px" y="0px"
	 viewBox="0 0 711.2 135" style="enable-background:new 0 0 711.2 135;" xml:space="preserve">
<style type="text/css">
	.st0{display:none;}
	.st1{display:inline;}
	.st2{fill:#E0E0E0;}
	.st3{fill:#FF1D79;}
	.st4{fill:#FF7BB7;}
	.st5{fill:#CE1963;}
	.st6{fill:#050554;}
	.st7{fill:#110A72;}
	.st8{fill:#FFD24A;}
</style>
<g id="Layer_2">
</g>
<g id="Layer_1">
	<g class="st0">
		<g class="st1">
			<path class="st2" d="M151.7,62.7l0.3,4.9l0.4,4.9c2.3-0.3,4.2-0.8,5.6,0.2c1.3,1,1.5,3,0.5,4.3c-1,1.4-3.1,1.4-5.7,1.7
				c0.8,10.6,1.1,19.1,1.1,25.4c0,1.7-1.4,3.1-3.1,3.1c-1.7,0-3.1-1.4-3.1-3.1c0-6.3-0.3-14.7-1.1-24.9l-5.3,0.5
				c0.2,8.2,0.3,16,0.3,23.4c0,1.7-1.4,3.1-3.1,3.1c-1.7,0-3.1-1.4-3.1-3.1c0-7.2-0.1-14.6-0.2-22.4c-1,0.2-1.9,0.4-2.9,0.8
				c-1.7,0.4-3.4-0.5-3.9-2.3c-0.4-1.6,0.5-3.3,2.1-3.8l4.4-1l-0.3-10.3c-1.8,0.3-3.8,0.6-5.7,1.1c-1.6,0.4-3.3-0.6-3.6-2.4
				c-0.4-1.6,0.6-3.3,2.4-3.6c2.3-0.5,4.5-1.1,6.8-1.4v-0.2c0-0.2-0.2-3.8-0.8-10.6c-0.5-6.8-0.8-11.9-0.4-15.3
				c0.1-1.7,1.7-2.9,3.4-2.8c1.7,0.1,2.9,1.7,2.8,3.4c-0.3,7-0.2,8.8,0.5,16.1c0.3,3.6,0.5,6.5,0.6,8.6l4.4-0.4
				c-0.4-9.7-0.4-18.1,0.1-25.4c0.1-1.7,1.6-3,3.3-2.9c1.7,0.1,3,1.6,2.9,3.3c-0.5,7.1-0.5,15.3-0.1,24.8c1.8,0,3.8,0,5.6,0.1
				c1.7,0.1,3.1,1.5,3,3.2c-0.1,1.7-1.5,3.1-3.2,3C155.2,62.7,153.5,62.7,151.7,62.7z M146.3,73.1l-0.4-5l-0.3-5.2l-4.5,0.4
				l0.3,10.3L146.3,73.1z"/>
			<path class="st2" d="M189.5,94.4v-4.2c0.4-15.9,0.3-21.7-0.1-37.4c-0.2-7.8-0.3-14.1-0.3-18.7c0-1.7,1.4-3.1,3.1-3.1
				c1.7,0,3.1,1.4,3.1,3.1c0,4.6,0.1,10.8,0.3,18.8c0.4,15.9,0.5,21.7,0.1,37.6v4c-0.1,2.1-0.2,4-0.4,5.4c-1.4,10.3-8.7,12-15.5,8
				c-3.2-1.8-5.2-4.1-5.9-6.8c-0.3-1.2-0.4-2.7-0.3-4.4c0-0.1,0-0.5,0.1-1.4c0.1-0.8,0.1-1.4,0.1-1.8c0-22-0.8-42.2-2.1-60.7
				c-0.1-1.7,1.2-3.2,2.9-3.3c1.7-0.1,3.2,1.2,3.3,2.9c1.4,18.7,2.1,39.1,2.1,61.2l-0.2,3.6c-0.1,1,0,1.7,0.1,2.3
				c0.5,2.1,5.2,4.7,7,4.2C189.2,102.7,189.4,98,189.5,94.4z"/>
			<path class="st2" d="M213.4,52.7l0.6,4.8c2.5-3.3,8-9.4,13.9-5.9c1.8,1.2,3.3,3.4,4.3,6.8l0.8,3.4c0.1,0.2,0.1,0.5,0.2,0.9
				c0.1,0.3,0.1,0.6,0.2,1c0.1,0.3,0.1,0.5,0.1,0.6c2,8.5,2,17.5,1.3,29.1c-0.4,5.9-0.6,10.1-0.6,12.7c0,1.7-1.4,3.1-3.1,3.1
				c-1.7,0-3.1-1.4-3.1-3.1c0-3.1,0.2-7.5,0.6-13.2c0.8-11.3,0.8-19.2-1.1-27c0-0.1-0.9-4.2-1.3-5.6c-1.2-3.8-1.6-4.2-4.3-2
				c-1.7,1.4-2.9,2.8-3.6,4.2c-3.5,6.9-2.9,16-2.6,23.5c0.1,3.8,0.2,6.4,0.2,7.8v4.9c0,2.6,0,4.7-0.3,5.6c-0.3,1.2-1.3,2.3-3,2.3
				c-1.6,0-2.5-1-2.9-1.8c0-0.1,0-0.3-0.1-0.4c-0.1-0.1-0.1-0.3-0.1-0.5c0-0.1,0-0.3-0.1-0.6c0-0.4,0-1.1-0.1-1.8
				c-0.3-3.9-0.4-5.5-0.3-10.6v-5.3c-0.2-14.8-0.9-25.3-1.8-31.5c-0.3-1.7,1-3.3,2.7-3.6C211.5,49.8,213.1,51.1,213.4,52.7z"/>
			<path class="st2" d="M263.1,101.5l-1.3-6.5l-1.2-5.9c-0.4,5.7-1.1,9.7-1.8,12.1c-0.9,2.3-1.3,3.4-2.5,4.3c-1.2,0.9-2.5,1-3.9,0.3
				c-0.5-0.3-1.1-0.8-1.4-1.2l-0.3-0.6v-0.4c-0.1-0.1-0.1-0.3-0.1-0.4c-0.1-0.3-0.1-0.6-0.2-1.2l-0.3-3.4l-0.8-6.9L247.1,75
				c-1.5-10.2-2.3-17.9-2.3-23.3c0-1.7,1.4-3.1,3.1-3.1c1.7,0,3.1,1.4,3.1,3.1c0,5.2,0.6,11.8,1.2,15.8l1.3,8.4
				c0.5,3.6,0.9,6.2,1.1,7.8c0.1-2,0.3-5,0.4-9.1c0.3-8,0.3-8.7,0.8-13.1l0.4-4.9v-2.1c-0.1-1.2-0.1-1.6,0.2-2.1
				c0.1-0.5,0.4-1,0.9-1.3c1-0.9,2-1.1,3.2-0.5c0.5,0.3,1.1,0.6,1.4,1.2c0.3,0.3,0.4,0.6,0.5,1.1c0.5,1.7,0.8,3.9,0.8,6.5v2.9
				c0,1.8,0,2.8,0.1,2.8c0.4,6.1,1.6,14.3,3.6,24.3c0.3-7.5,1.1-19.1,2-34.8c0.1-1.7,1.6-3,3.3-2.9c1.7,0.1,3,1.6,2.9,3.3
				c-1.2,17.5-1.9,30.4-2.3,38.6c-0.4,8-0.5,9.3-1.4,11.5c-0.8,2-2.3,4.1-5.2,3.3c-2-0.5-3.1-2-3-4.5v-1
				C263.3,102.6,263.2,102.2,263.1,101.5z"/>
			<path class="st2" d="M291.6,54v0.8c2.4-1.7,5.3-2.3,8.7-1.7c1.7,0.3,2.9,1.9,2.6,3.6c-0.3,1.7-1.9,2.9-3.6,2.6
				c-4.4-0.9-6.3,1.8-6.8,8.6c-0.1,1-0.1,1.9-0.1,3c0.1,2,0.2,3.9,0.2,6l0.4,4.9c0.3,2.6,0.4,4.4,0.4,5.6c0.2,7.5,0.3,11.9,0.2,13.3
				v0.8c0.1,0.8,0.2,1.2,0.2,1.4c0,1.8-0.3,3.6-2.5,4.4c-1,0.3-1.9,0.1-2.9-0.5c-1.6-1-2.1-2.6-1.7-4.8c0.3-1.3,0.4-1.5,0.1-3.2
				c-0.1-1-0.1-1.7-0.2-2.3c-0.1-1.6-0.2-3.6-0.1-6.2v-5.8l-0.2-7.6c-0.1-1.9-0.2-3.8-0.2-5.4c-0.5-10.6-0.8-16.3-0.8-17.2
				c0-1.7,1.3-3.2,3-3.2C290.1,51,291.6,52.3,291.6,54z"/>
			<path class="st2" d="M336.3,58.9l0.4,0.9c0.1,0.3,0.1,0.6,0.2,1c0.1,0.5,0.1,1.2,0.2,2l0.3,6.3v3.6c0.4,4.2,0.4,4.2,0.5,10.3
				c0,6.1,0.1,10.9,0.6,14.5c0.2,1.6,0.4,2.8,0.6,3.4h0.1c2.1,1.2,2.7,1.3,3,3c0.3,1.7-0.9,3.3-2.6,3.6c-0.9,0.1-1.6,0-2.4-0.5
				c-0.1-0.1-0.1-0.1-0.2-0.1l-0.3-0.2c-0.1-0.1-0.3-0.2-0.5-0.3c-2.1-1.3-2.8-2.7-3.3-4.5l-0.6,1.3c-2.9,5.2-7.6,7.1-12.8,3.2
				c-6-4.3-8-19.5-6.2-32.4c1.1-7.3,3.1-12.8,6.1-16.3c3.9-4.6,8.9-5.8,15.2-2.8C336.2,55.7,336.8,57.5,336.3,58.9z M331.2,73.2
				l-0.2-1.5c-0.5-3.2-0.8-5.7-0.9-7.3c0-0.1,0-0.4-0.1-1c-0.1-1.4-0.3-2.5,0.1-3.6c-2.3-0.6-4.3,0-5.9,1.9
				c-4.4,5.5-6.4,19.3-4.6,30.2c0.8,5.3,2,8.5,3.6,9.7c1.7,1.3,2.4,1,3.6-1.2C330.1,94.7,331.1,82.5,331.2,73.2z"/>
			<path class="st2" d="M355.9,85.1l-0.6-7.9c-0.3-3.5-0.8-10.2-0.9-15c-0.1-2.4-0.1-4.7-0.1-7.1c0-1.7,1.4-3.1,3.1-3.1
				c1.7,0,3.1,1.4,3.1,3.1v0.5l0.1-0.3c1.2-2.3,2.8-3.6,4.6-4.2c1.4-0.5,3-0.8,4.4-0.4c1.4,0.4,2,0.6,3.3,1.2l1,0.5
				c1.6,0.8,2.3,2.5,1.7,3.9c4.3,8.3,3.8,21.4,2,41c-0.5,6.4-4.2,10.6-7.6,11.4c-2,0.3-4.1-0.4-6-2c-0.2-0.1-0.4-0.3-0.5-0.5
				c0.3,8.6,0.3,16.3-0.2,23.1c-0.1,1.7-1.6,3-3.3,2.9c-1.7-0.1-3-1.6-2.9-3.3c0.8-9.1,0.5-21.2-0.6-36.5
				C356.3,91,356.2,88.7,355.9,85.1z M369,102.4c0.1,0,0.3-0.2,0.6-0.5c1.1-1.4,1.7-3.2,1.8-5.3c1.7-19,2.3-33.2-2.1-38.7
				c-0.2-0.3-0.3-0.5-0.4-0.9c-1.2-0.4-1.9-0.3-2.8,1.3c-0.5,1.2-1.1,2.7-1.5,4.7c-1.7,8-1.4,21.2,0.6,30.8c1,4.5,1.9,7.2,2.9,8
				C368.5,102.2,368.8,102.4,369,102.4z"/>
			<path class="st2" d="M403.7,56.1l2.5,7.7l0.4,1.4c1.1-2.7,2.1-6.4,3.1-11.4c1.8-9,3-16.3,3.3-21.8c0.1-1.7,1.6-3,3.3-2.9
				c1.7,0.1,3,1.6,2.9,3.3c-0.3,5.9-1.5,13.4-3.4,22.6c-1.2,5.4-2.3,9.5-3.4,12.7c-0.8,1.9-1.6,3.4-2.4,4.5l-0.9,1
				c0.6,4,1,9.9,1,17.5c0,7.6,0.1,12.4,0.2,14.3c0.1,1.7-1.2,3.2-2.9,3.3c-1.7,0.1-3.2-1.2-3.3-2.9c-0.3-4.3-0.3-8-0.2-11.3
				c0.2-6.3,0.1-14.8-1.1-20.9c0-0.1,0-0.1-0.1-0.2c-0.1-0.1-0.1-0.1-0.1-0.2c0-0.1,0-0.1-0.1-0.2l-0.1-0.5l-0.5-1.6l-1.6-4.7
				l-2.6-7.7c-0.3-1-1.7-5-4.3-12.2c-1.8-5.3-3.2-9.4-4.1-12.8c-0.4-1.6,0.5-3.3,2.3-3.8c1.6-0.4,3.3,0.5,3.8,2.3
				c0.8,2.7,2,6.8,4,12.1C401.5,49.8,402.9,54,403.7,56.1z"/>
			<path class="st2" d="M441.1,51.2h1.7c1.1,0,1.9,0.4,2.6,1.3c0.3,0.1,2.3,1.2,3,1.9c0.6,0.6,1.4,1.9,2.1,3.9
				c1.6,4,2.7,15,2.8,25.4c0.1,5.9-0.2,10.8-0.9,14.9c-0.5,4.6-1.8,8.5-4.1,10.3c-2.6,2-8,1.6-10.5,0.2c-2.7-1.4-4.2-5.5-5-10.5
				c-1.6-9-1.9-22.6-1.1-32.6c0.5-5.7,1.5-9.4,2.7-11.3c1.3-1.9,2.8-3.1,4.5-3.4C439.5,51.2,440.2,51.2,441.1,51.2z M444.8,60.6
				l-0.6-1.7l-0.4-0.2l-1.8-1.2c-0.1,0-0.1,0-0.2-0.1h-1.4c-0.1,0.1-0.3,0.4-0.6,0.8c-0.6,1-1.2,3.8-1.6,8.4
				c-0.9,9.4-0.6,22.7,1,30.9c0.3,2,0.8,3.8,1.3,4.9c0.2,0.5,0.4,1.1,0.8,1.4c0.5,0.2,1.2,0.3,2,0.3c0.5,0,1.1,0,1.5-0.1
				c0.3-0.3,0.5-0.9,0.8-1.6c0.4-1.2,0.8-2.7,1.1-4.7c1.2-7.3,0.9-19.1,0-28.1C445.8,65,445.3,62,444.8,60.6z"/>
			<path class="st2" d="M476.6,101.1l0.8,1.4l1.1,0.3c0.3-0.1,0.6-0.6,1-1.5c0.5-1.4,1.1-3.8,1.4-7.3c0.9-11.7,0.6-15.3,0.1-27.1
				c-0.3-5.9-0.4-10.5-0.4-13.9c0-1.7,1.4-3.1,3.1-3.1c1.7,0,3.1,1.4,3.1,3.1c0,3.1,0.1,7.6,0.4,13.6c0.5,12,0.8,16.1-0.1,28.1
				c-0.9,8.2-2.5,11.9-5.6,13.6c-4.2,2.3-8.8-0.2-10.6-4.8c-0.6-1.6-1.2-3.6-1.7-6.2c-0.6-4-1.2-9.4-1.5-16.5
				c-0.1-2.1-0.1-5.1-0.2-9.1c-0.2-7.8-0.4-15.5-1.3-18.8c-0.4-1.6,0.5-3.3,2.3-3.8c1.6-0.4,3.3,0.5,3.8,2.3c1.2,4,1.3,12.1,1.5,20
				c0.2,7.8,0.3,17.6,1.6,24.9C475.6,98.2,476.1,99.9,476.6,101.1z"/>
			<path class="st2" d="M504,54v0.8c2.4-1.7,5.3-2.3,8.7-1.7c1.7,0.3,2.9,1.9,2.6,3.6c-0.3,1.7-1.9,2.9-3.6,2.6
				c-4.4-0.9-6.3,1.8-6.8,8.6c-0.1,1-0.1,1.9-0.1,3c0.1,2,0.2,3.9,0.2,6l0.4,4.9c0.3,2.6,0.4,4.4,0.4,5.6c0.2,7.5,0.3,11.9,0.2,13.3
				v0.8c0.1,0.8,0.2,1.2,0.2,1.4c0,1.8-0.3,3.6-2.5,4.4c-1,0.3-1.9,0.1-2.9-0.5c-1.6-1-2.1-2.6-1.7-4.8c0.3-1.3,0.4-1.5,0.1-3.2
				c-0.1-1-0.1-1.7-0.2-2.3c-0.1-1.6-0.2-3.6-0.1-6.2v-5.8l-0.2-7.6c-0.1-1.9-0.2-3.8-0.2-5.4c-0.5-10.6-0.8-16.3-0.8-17.2
				c0-1.7,1.3-3.2,3-3.2C502.5,51,504,52.3,504,54z"/>
			<path class="st2" d="M532.7,86.2v-7l-0.9-14.5l-0.5-7.3c-0.2-3.8-0.3-5.9-0.4-6.4c0-0.3,0-1-0.1-2.1c-0.1-1.2-0.3-2.5-0.4-3.9
				c-0.3-2.8-0.4-6.9,0-10c0.3-2.1,1.1-4.4,3.2-5.4c5.6-2.3,10.9,1.9,15.3,7.6c7.3,9.3,10,18,11.4,26.7c1.6,8.9,1.1,18.8-1.8,26.9
				c-2.9,8.3-9.7,15.7-19.2,19.6c-1.4,0.5-2.5,0.2-3.4-0.8c-0.9,0.3-2.5,0.2-3.4-1.2c-0.5-0.6-0.8-1.4-0.6-2.3c0.5-3.9,0.9-9,1-12.9
				C532.8,91.7,532.8,89.2,532.7,86.2z M537.6,57.3l0.5,8c0.1,2.3,0.8,12.1,0.8,15.9c0,1.9,0,4.4,0.1,7.5c0.1,6.2-0.2,10.8-0.6,15.5
				c9-4.3,14.6-12.3,16.1-21.7c1.5-9.3,0.2-19.5-3.3-29.4c-1.4-3.9-3.8-7.8-7.1-12c-1.8-2.4-3.4-4.1-4.9-5c-1-0.5-1.7-0.9-2.4-0.9
				c-0.1,0.2-0.1,0.4-0.2,0.8c-0.3,2.5-0.1,6.1,0.1,8.8l0.3,3.6l0.2,2.1C537.1,50.8,537.2,53,537.6,57.3z"/>
			<path class="st2" d="M577.6,54v0.8c2.4-1.7,5.3-2.3,8.7-1.7c1.7,0.3,2.9,1.9,2.6,3.6c-0.3,1.7-1.9,2.9-3.6,2.6
				c-4.4-0.9-6.3,1.8-6.8,8.6c-0.1,1-0.1,1.9-0.1,3c0.1,2,0.2,3.9,0.2,6l0.4,4.9c0.3,2.6,0.4,4.4,0.4,5.6c0.2,7.5,0.3,11.9,0.2,13.3
				v0.8c0.1,0.8,0.2,1.2,0.2,1.4c0,1.8-0.3,3.6-2.5,4.4c-1,0.3-1.9,0.1-2.9-0.5c-1.6-1-2.1-2.6-1.7-4.8c0.3-1.3,0.4-1.5,0.1-3.2
				c-0.1-1-0.1-1.7-0.2-2.3c-0.1-1.6-0.2-3.6-0.1-6.2v-5.8l-0.2-7.6c-0.1-1.9-0.2-3.8-0.2-5.4c-0.5-10.6-0.8-16.3-0.8-17.2
				c0-1.7,1.3-3.2,3-3.2C576.1,51,577.6,52.3,577.6,54z"/>
			<path class="st2" d="M604.6,81.4c0.3,7.2,1.2,12.7,2.4,16.2c1.3,4.2,4.8,5.5,7.1,2.8c1.2-1.3,3.1-1.5,4.4-0.3
				c1.3,1.2,1.5,3.1,0.3,4.4c-3,3.4-7.1,4.4-10.6,3c-6.9-2.6-7.9-9.2-9-17.9c-1.1-8.6-1.4-18.8,0.2-26c1-4.6,2.5-7.9,4.7-9.8
				c3.1-2.6,6.5-2.1,9.4,0.1c4.2,3.3,7.4,11.3,7.5,17.6c0.1,4-0.9,6.9-3,8.7c-1,0.9-2.7,1.1-4.1,1.2c-1.2,0.1-2.7,0.1-4.5,0.1
				C608,81.5,606.4,81.5,604.6,81.4z M614.3,75c0.4-0.6,0.6-1.7,0.5-3.3c-0.1-4.8-2.7-10.9-5.1-13c-0.4-0.3-0.8-0.4-1-0.4
				c-0.1-0.1-0.3,0-0.5,0.2c-2.3,1.8-3.6,8.5-3.6,16.6c1.9,0.1,3.5,0.1,4.9,0.1c1.6,0,3,0,4-0.1C613.7,75.1,614,75.1,614.3,75z"/>
			<path class="st2" d="M654.4,58.9l0.4,0.9c0.1,0.3,0.1,0.6,0.2,1c0.1,0.5,0.1,1.2,0.2,2l0.3,6.3v3.6c0.4,4.2,0.4,4.2,0.5,10.3
				c0,6.1,0.1,10.9,0.6,14.5c0.2,1.6,0.4,2.8,0.6,3.4h0.1c2.1,1.2,2.7,1.3,3,3c0.3,1.7-0.9,3.3-2.6,3.6c-0.9,0.1-1.6,0-2.4-0.5
				c-0.1-0.1-0.1-0.1-0.2-0.1l-0.3-0.2c-0.1-0.1-0.3-0.2-0.5-0.3c-2.1-1.3-2.8-2.7-3.3-4.5l-0.6,1.3c-2.9,5.2-7.6,7.1-12.8,3.2
				c-6-4.3-8-19.5-6.2-32.4c1.1-7.3,3.1-12.8,6.1-16.3c3.9-4.6,8.9-5.8,15.2-2.8C654.3,55.7,654.9,57.5,654.4,58.9z M649.3,73.2
				l-0.2-1.5c-0.5-3.2-0.8-5.7-0.9-7.3c0-0.1,0-0.4-0.1-1c-0.1-1.4-0.3-2.5,0.1-3.6c-2.3-0.6-4.3,0-5.9,1.9
				c-4.4,5.5-6.4,19.3-4.6,30.2c0.8,5.3,2,8.5,3.6,9.7c1.7,1.3,2.4,1,3.6-1.2C648.2,94.7,649.2,82.5,649.3,73.2z"/>
			<path class="st2" d="M685.8,51c2.5,0.6,4.4,2.9,5.7,6.9c0.5-1.2,1.3-2.5,2.3-3.6c1-1.2,3-2.9,4.8-3c1,0,2,0.2,3.3,0.6
				c2.9,1.3,3.8,5.4,4.5,10.1c1,7.8,1.1,20.8,1.1,26.8c0,3,0,6.2-0.1,9.6c-0.1,3.3-0.1,5.4-0.1,5.9c0,1.7-1.4,3.1-3.1,3.1
				c-1.7,0-3.1-1.4-3.1-3.1c0-0.5,0-2.6,0.1-5.9c0.1-3.3,0.1-6.5,0.1-9.4c0-4.3,0-19.1-1-26.1c-0.3-2-0.6-3.5-1-4.6
				c-0.1-0.2-0.1-0.4-0.2-0.5c-0.3,0.2-0.8,0.8-1.3,1.6c-1.1,1.8-1.7,3.6-2,5.6c-0.4,2.4-1,8-1.6,17.2c0.1,0.8,0.1,1.6,0.1,2.4V88
				c0,1.6,0,5.4-0.1,11.4v6.7c-0.1,0.6-0.3,1.2-0.6,1.7c-1,1.3-2.1,1.7-3.6,1.2c-1.3-0.4-2-1.6-2.4-3.2c-0.1-0.5-0.1-1.1-0.2-1.8
				c-0.1-1.2-0.1-2.8-0.1-4.8c0.1-3.3,0.2-7.7,0.5-13.2l0.2-4.1c-0.1-9.1-0.9-17.1-2.3-21.7c-0.3-1-0.6-1.9-0.9-2.4l-0.3-0.4
				c-0.1-0.1-0.2-0.2-0.2-0.3c-0.3-0.1-0.5,0-0.6,0.1c-0.3,0.3-0.8,1-1.1,1.9c-0.5,1.3-1.1,3.4-1.5,6.5c-0.2,1.3-0.4,6-0.8,14.2
				c0.2,2.5,0.3,4.6,0.4,6.4c0.1,5.4,0,10.4-0.3,15.1v0.3c0,0.1,0,0.3,0.1,0.6v1c0.1,0.8,0,1.4-0.1,1.9c-0.8,2.9-3.9,3.1-5.6,1.5
				c-0.5-0.6-0.9-1.3-0.9-1.8c0-0.1,0-0.3-0.1-0.6c0-0.3,0-0.9-0.1-1.4v-4.3c0-3.3,0.1-7.6,0.2-12.8c0-1.9,0-3.9,0.1-5.9
				c-0.1-0.9-0.2-2.1-0.3-3.9l-0.3-2.9c-0.5-5.3-1.3-11.4-2.5-18.5c-0.3-1.7,1-3.3,2.7-3.6c1.6-0.3,3.2,1,3.5,2.6l0.2,1.7
				C678.7,52.7,681.2,49.8,685.8,51z"/>
		</g>
		<g class="st1">
			<g>
				<path class="st3" d="M93.3,23c0,23.7-31.2,35.9-31.2,35.9S31,46.7,31,23c0-10.1,7.5-18.3,16.8-18.3c6.1,0,11.4,3.5,14.3,8.7
					c3-5.2,8.3-8.7,14.3-8.7C85.8,4.6,93.3,12.8,93.3,23z"/>
				<g>
					<path class="st4" d="M87.9,21.2C88,21.2,88,21.2,87.9,21.2c0.4-0.1,0.7-0.4,0.6-0.7c-0.9-5.4-4.1-9.8-8.7-12
						c-0.3-0.1-0.7,0-0.8,0.3c-0.1,0.3,0,0.7,0.3,0.8c4.3,2,7.3,6.1,8.1,11.1C87.4,21,87.6,21.2,87.9,21.2z"/>
					<path class="st4" d="M88,26c0.3,0,0.6-0.2,0.6-0.5c0-0.4,0.1-0.8,0.1-1.2c0-0.3-0.2-0.6-0.6-0.6c-0.3,0-0.6,0.2-0.6,0.6
						c0,0.4,0,0.8-0.1,1.2C87.4,25.7,87.6,26,88,26C88,26,88,26,88,26z"/>
				</g>
				<path class="st5" d="M93.3,23c0,23.7-31.2,36-31.2,36s-0.7-0.3-1.9-0.8c5.1-2.2,30.3-14.2,30.3-35.6c0-8.6-5.5-15.9-12.9-17.8
					C86.3,5.3,93.3,13.2,93.3,23z"/>
				<path class="st5" d="M40.1,31.8c0.1,1.5-2,2.1-2.7,0.7c-1.4-2.8-2.2-5.8-2.2-9.2c0-7.2,5.3-13.1,11.8-13.1c1.4,0,2.8,0.3,4,0.8
					c1.2,0.5,1.2,2.2,0,2.6C46.4,15.4,39.5,20.1,40.1,31.8z"/>
			</g>
			<path class="st6" d="M26.4,112.4c0,0-1.3,4-3.8,5.2s-0.9,4,3.8,4.4c4.7,0.5,20.2,3.5,21.6,3.8c1.5,0.3,9.9,3.1,14.8,2.3
				c4.9-0.8,20.8-3.4,23.9-4.1c3.1-0.7,8.6-4.6,8.9-6.4c0.3-1.8,0.6-4.8-3.7-4.8c-4.3,0-19.3,2.4-19.3,2.4l-30.9-1.1L26.4,112.4z"/>
			<g>
				<polygon class="st7" points="27.5,77.7 26.9,95.5 26.9,104 26.9,111.1 26.4,114.1 33.6,117 59.8,121.4 93.9,112.8 95.9,107.2 
					95.9,99.5 95.2,77.7 70,74.8 66.2,69.9 61.5,52.5 60.2,52.5 58.3,64.3 55.9,71.7 52.6,74.5 36.6,76.9 				"/>
				<g>
					<polygon class="st7" points="27.9,59.8 44.2,54.9 54.4,51.7 58.3,51 60.6,51.7 61,55.4 59.1,60.2 58,66.1 55.4,72.2 51.8,75 
						47.3,75.6 39.7,76.4 33.3,77.4 26.9,77.7 23.8,77.1 22.6,75 24.2,68.7 26.4,62.6 					"/>
					<g>
						<path class="st7" d="M61,51c0,0,0.4-0.5,3.4,0.7c2.9,1.2,11.9,4.1,11.9,4.1L87.5,58l4.6,1.3l3.1,5.4l4,7.2l1.3,4.4l-1.5,1.9
							h-4.9L70,74.8l-3-3.3l-2.1-6.9l-1.5-6.5L61,51z"/>
						<path class="st8" d="M26.5,78.6c-0.2,6.6-0.7,13.3-0.7,20c0,3.2,0.1,6.5,0.2,9.7c0.1,1.9-1.3,5.5,0.1,7.1
							c1.2,1.4,4.3,1.5,6.1,2c3.1,0.8,6.3,1.2,9.4,2.1c5.4,1.5,11.8,1.9,17.4,2.7c2.8,0.4,6.1-1.3,8.7-1.9c4-1,7.9-1.9,12-2.8
							c2.7-0.6,5.2-1.4,7.9-2.1c1.5-0.4,6.2-0.8,7.1-2.2c2.5-3.7,1.9-9.9,1.9-14.1c0-3.4-0.1-6.7-0.3-10c-0.2-3.4-0.1-6.7-0.1-10.1
							c1.3,0.1,2.5,0.1,3.5-0.3c4.3-1.6-0.5-8.8-1.3-10.8c-0.8-1.9-2.1-3.6-3.3-5.4c-0.9-1.2-1.4-2.9-2.7-3.9
							c-1.3-0.9-3.8-1.3-5.4-1.7c-3.1-0.7-7.3-1.5-10.2-2.7c-2.1-0.9-4.8-0.8-7-1.4c-1.6-0.4-3.5-1-4.9-1.8c-0.6-0.4-1.1-0.8-1.8-1
							c-0.7-0.2-1.4-0.4-2.1-0.5c-1-0.1-1.9,0-2.9,0.2c-1,0.3-1.8,0.8-2.8,0.9c-0.7,0.1-1.2,0.1-1.9,0.3c-0.9,0.2-1.7,0.5-2.6,0.8
							c-2.6,0.9-5.2,1.8-7.9,2.5c-3,0.8-5.9,1.9-8.8,2.9c-2.2,0.7-4.7,0.7-6.8,1.8c-0.2,0.1-0.4,0.3-0.4,0.4
							c-0.3,0.1-0.5,0.3-0.6,0.5c-1.1,3.8-2.7,7.4-3.7,11.2c-0.5,1.9-1.8,4.8-0.4,6.5C23,78.4,24.8,78.6,26.5,78.6z M68.1,54.4
							c3.9,1.2,8.4,2.1,12.5,2.7c2.4,0.4,4.6,1.4,7,1.9c1.9,0.4,3.8,0.8,4.5,2.5c0.6,1.3,1.7,2.4,2.5,3.6c1.8,2.7,2.9,5.7,4.4,8.6
							c2.3,4.7-3.5,3.3-6.2,3c-2.2-0.2-4.3-0.4-6.5-0.7c-4.8-0.7-9.7-1.5-14.6-2c-5.1-0.5-5.1-8.3-6-11.6c-1-3.6-2.7-7.1-3.7-10.8
							C64.1,52.5,66,53.7,68.1,54.4z M64.6,67.2c0.4,2.5,2.1,8.3,5.6,8.5c5.2,0.3,10.5,1.2,15.6,2.1c2.5,0.4,4.9,0.5,7.4,0.8
							c0.3,0,0.7,0.1,1.1,0.1c0,4.5-0.2,8.9,0.5,13.4c0.9,5.8,0,12.7-1,18.4c-0.4,2.3-4.6,2.7-6.6,3.2c-3,0.7-5.8,1.6-8.7,2.3
							c-2.8,0.6-5.4,1-8.1,1.7c-3.2,0.9-6,1.9-9.1,2.2c0-2.5,0.6-4.9,0.7-7.4c0.1-3.4,0.2-7.1,0.8-10.5c1-5.1,0.5-10.6,0.5-15.7
							c-0.1-9.7-0.9-19.4-1.4-29.1C62.9,60.5,64.1,63.7,64.6,67.2z M60,60.2c0.2,9.7,1.4,19.5,1.5,29.2c0.1,4.5-0.4,8.9-0.7,13.4
							c-0.3,5.7-1.5,11.5-1.4,17.2c-0.7,0-1.4,0-2.1-0.1c-5.2-0.7-10.9-1.1-15.9-2.5c-2.2-0.6-4.7-1.3-6.9-1.6c-1.5-0.2-3-0.7-4.5-1
							c-3.1-0.6-2.7-1.6-2.2-4c1-5.2-0.2-11.3,0-16.6c0.2-5.2,0.5-10.5,0.4-15.7c0.9-0.1,1.7-0.1,2.2-0.2c3.2-0.3,7.9-0.4,11-1.4
							c6-1.8,12,0.4,15.4-5.3c1.8-3.1,2.1-7.1,3-10.5C59.9,60.8,59.9,60.5,60,60.2z M24.2,72.3c0.2-3.9,2.6-8.1,3.8-11.9
							c0.1,0,0.2,0,0.2-0.1c2.8-1.5,7.5-2.2,10.7-3.1c4.6-1.3,9.3-2.8,13.7-4.3c1.6-0.6,3.5-0.6,5.1-1.1c3.6-1.1,1.4,4.6,1.1,6.2
							C58,62.4,57.3,68.2,54.7,72c-2.1,3-8.1,2.7-11.7,3.3c-3.8,0.6-7.7,0.7-11.4,1.4c-1.8,0.3-3.7,0.3-5.5,0.3
							C22.6,76.9,24.1,74.1,24.2,72.3z"/>
					</g>
				</g>
			</g>
			<path class="st8" d="M25.8,38.6c-0.4,0-0.8-0.2-1.1-0.5c-0.4-0.5-10-13.2-13.1-20c-0.3-0.7,0-1.5,0.7-1.8c0.7-0.3,1.5,0,1.8,0.7
				c2.9,6.5,12.6,19.4,12.7,19.5c0.5,0.6,0.3,1.4-0.3,1.9C26.4,38.5,26.1,38.6,25.8,38.6z"/>
			<path class="st8" d="M92.4,45.5c-0.3,0-0.5-0.1-0.8-0.3c-0.6-0.4-0.7-1.3-0.3-1.9c4.2-5.8,10.3-20.7,10.4-20.8
				c0.3-0.7,1.1-1,1.8-0.7c0.7,0.3,1,1.1,0.7,1.8c-0.3,0.6-6.3,15.3-10.7,21.4C93.2,45.3,92.8,45.5,92.4,45.5z"/>
			<path class="st8" d="M22.1,54.3c0,0-0.1,0-0.1,0c-0.4,0-10.6-0.9-17.7-3.2c-0.7-0.2-1.1-1-0.9-1.7c0.2-0.7,1-1.1,1.7-0.9
				c6.8,2.2,17,3.1,17.1,3.1c0.7,0.1,1.3,0.7,1.2,1.5C23.4,53.8,22.8,54.3,22.1,54.3z"/>
			<path class="st8" d="M93.8,53.2c-0.4,0-0.9-0.2-1.1-0.6c-0.4-0.6-0.2-1.5,0.4-1.9c6-3.8,13.1-11.2,13.2-11.3
				c0.5-0.5,1.4-0.6,1.9,0c0.5,0.5,0.6,1.4,0,1.9C108,41.6,100.9,49,94.5,53C94.3,53.2,94.1,53.2,93.8,53.2z"/>
			<path class="st8" d="M13.9,41.6c-0.1,0-0.2,0-0.3,0c-0.2,0-5.1-1.1-10.6-6.5c-0.5-0.5-0.6-1.4,0-1.9c0.5-0.5,1.4-0.6,1.9,0
				c5,4.8,9.3,5.8,9.3,5.8c0.7,0.2,1.2,0.9,1,1.6C15,41.1,14.5,41.6,13.9,41.6z"/>
		</g>
	</g>
	<g>
		<path class="st2" d="M151.7,62.7l0.3,4.9l0.4,4.9c2.3-0.3,4.2-0.8,5.6,0.2c1.3,1,1.5,3,0.5,4.3c-1,1.4-3.1,1.4-5.7,1.7
			c0.8,10.6,1.1,19.1,1.1,25.4c0,1.7-1.4,3.1-3.1,3.1c-1.7,0-3.1-1.4-3.1-3.1c0-6.3-0.3-14.7-1.1-24.9l-5.3,0.5
			c0.2,8.2,0.3,16,0.3,23.4c0,1.7-1.4,3.1-3.1,3.1c-1.7,0-3.1-1.4-3.1-3.1c0-7.2-0.1-14.6-0.2-22.4c-1,0.2-1.9,0.4-2.9,0.8
			c-1.7,0.4-3.4-0.5-3.9-2.3c-0.4-1.6,0.5-3.3,2.1-3.8l4.4-1l-0.3-10.3c-1.8,0.3-3.8,0.6-5.7,1.1c-1.6,0.4-3.3-0.6-3.6-2.4
			c-0.4-1.6,0.6-3.3,2.4-3.6c2.3-0.5,4.5-1.1,6.8-1.4v-0.2c0-0.2-0.2-3.8-0.8-10.6c-0.5-6.8-0.8-11.9-0.4-15.3
			c0.1-1.7,1.7-2.9,3.4-2.8c1.7,0.1,2.9,1.7,2.8,3.4c-0.3,7-0.2,8.8,0.5,16.1c0.3,3.6,0.5,6.5,0.6,8.6l4.4-0.4
			c-0.4-9.7-0.4-18.1,0.1-25.4c0.1-1.7,1.6-3,3.3-2.9c1.7,0.1,3,1.6,2.9,3.3c-0.5,7.1-0.5,15.3-0.1,24.8c1.8,0,3.8,0,5.6,0.1
			c1.7,0.1,3.1,1.5,3,3.2c-0.1,1.7-1.5,3.1-3.2,3C155.2,62.7,153.5,62.7,151.7,62.7z M146.3,73.1l-0.4-5l-0.3-5.2l-4.5,0.4l0.3,10.3
			L146.3,73.1z"/>
		<path class="st2" d="M189.5,94.4v-4.2c0.4-15.9,0.3-21.7-0.1-37.4c-0.2-7.8-0.3-14.1-0.3-18.7c0-1.7,1.4-3.1,3.1-3.1
			c1.7,0,3.1,1.4,3.1,3.1c0,4.6,0.1,10.8,0.3,18.8c0.4,15.9,0.5,21.7,0.1,37.6v4c-0.1,2.1-0.2,4-0.4,5.4c-1.4,10.3-8.7,12-15.5,8
			c-3.2-1.8-5.2-4.1-5.9-6.8c-0.3-1.2-0.4-2.7-0.3-4.4c0-0.1,0-0.5,0.1-1.4c0.1-0.8,0.1-1.4,0.1-1.8c0-22-0.8-42.2-2.1-60.7
			c-0.1-1.7,1.2-3.2,2.9-3.3c1.7-0.1,3.2,1.2,3.3,2.9c1.4,18.7,2.1,39.1,2.1,61.2l-0.2,3.6c-0.1,1,0,1.7,0.1,2.3
			c0.5,2.1,5.2,4.7,7,4.2C189.2,102.7,189.4,98,189.5,94.4z"/>
		<path class="st2" d="M213.4,52.7l0.6,4.8c2.5-3.3,8-9.4,13.9-5.9c1.8,1.2,3.3,3.4,4.3,6.8l0.8,3.4c0.1,0.2,0.1,0.5,0.2,0.9
			c0.1,0.3,0.1,0.6,0.2,1c0.1,0.3,0.1,0.5,0.1,0.6c2,8.5,2,17.5,1.3,29.1c-0.4,5.9-0.6,10.1-0.6,12.7c0,1.7-1.4,3.1-3.1,3.1
			c-1.7,0-3.1-1.4-3.1-3.1c0-3.1,0.2-7.5,0.6-13.2c0.8-11.3,0.8-19.2-1.1-27c0-0.1-0.9-4.2-1.3-5.6c-1.2-3.8-1.6-4.2-4.3-2
			c-1.7,1.4-2.9,2.8-3.6,4.2c-3.5,6.9-2.9,16-2.6,23.5c0.1,3.8,0.2,6.4,0.2,7.8v4.9c0,2.6,0,4.7-0.3,5.6c-0.3,1.2-1.3,2.3-3,2.3
			c-1.6,0-2.5-1-2.9-1.8c0-0.1,0-0.3-0.1-0.4c-0.1-0.1-0.1-0.3-0.1-0.5c0-0.1,0-0.3-0.1-0.6c0-0.4,0-1.1-0.1-1.8
			c-0.3-3.9-0.4-5.5-0.3-10.6v-5.3c-0.2-14.8-0.9-25.3-1.8-31.5c-0.3-1.7,1-3.3,2.7-3.6C211.5,49.8,213.1,51.1,213.4,52.7z"/>
		<path class="st2" d="M263.1,101.5l-1.3-6.5l-1.2-5.9c-0.4,5.7-1.1,9.7-1.8,12.1c-0.9,2.3-1.3,3.4-2.5,4.3c-1.2,0.9-2.5,1-3.9,0.3
			c-0.5-0.3-1.1-0.8-1.4-1.2l-0.3-0.6v-0.4c-0.1-0.1-0.1-0.3-0.1-0.4c-0.1-0.3-0.1-0.6-0.2-1.2l-0.3-3.4l-0.8-6.9L247.1,75
			c-1.5-10.2-2.3-17.9-2.3-23.3c0-1.7,1.4-3.1,3.1-3.1c1.7,0,3.1,1.4,3.1,3.1c0,5.2,0.6,11.8,1.2,15.8l1.3,8.4
			c0.5,3.6,0.9,6.2,1.1,7.8c0.1-2,0.3-5,0.4-9.1c0.3-8,0.3-8.7,0.8-13.1l0.4-4.9v-2.1c-0.1-1.2-0.1-1.6,0.2-2.1
			c0.1-0.5,0.4-1,0.9-1.3c1-0.9,2-1.1,3.2-0.5c0.5,0.3,1.1,0.6,1.4,1.2c0.3,0.3,0.4,0.6,0.5,1.1c0.5,1.7,0.8,3.9,0.8,6.5v2.9
			c0,1.8,0,2.8,0.1,2.8c0.4,6.1,1.6,14.3,3.6,24.3c0.3-7.5,1.1-19.1,2-34.8c0.1-1.7,1.6-3,3.3-2.9c1.7,0.1,3,1.6,2.9,3.3
			c-1.2,17.5-1.9,30.4-2.3,38.6c-0.4,8-0.5,9.3-1.4,11.5c-0.8,2-2.3,4.1-5.2,3.3c-2-0.5-3.1-2-3-4.5v-1
			C263.3,102.6,263.2,102.2,263.1,101.5z"/>
		<path class="st2" d="M291.6,54v0.8c2.4-1.7,5.3-2.3,8.7-1.7c1.7,0.3,2.9,1.9,2.6,3.6c-0.3,1.7-1.9,2.9-3.6,2.6
			c-4.4-0.9-6.3,1.8-6.8,8.6c-0.1,1-0.1,1.9-0.1,3c0.1,2,0.2,3.9,0.2,6l0.4,4.9c0.3,2.6,0.4,4.4,0.4,5.6c0.2,7.5,0.3,11.9,0.2,13.3
			v0.8c0.1,0.8,0.2,1.2,0.2,1.4c0,1.8-0.3,3.6-2.5,4.4c-1,0.3-1.9,0.1-2.9-0.5c-1.6-1-2.1-2.6-1.7-4.8c0.3-1.3,0.4-1.5,0.1-3.2
			c-0.1-1-0.1-1.7-0.2-2.3c-0.1-1.6-0.2-3.6-0.1-6.2v-5.8l-0.2-7.6c-0.1-1.9-0.2-3.8-0.2-5.4c-0.5-10.6-0.8-16.3-0.8-17.2
			c0-1.7,1.3-3.2,3-3.2C290.1,51,291.6,52.3,291.6,54z"/>
		<path class="st2" d="M336.3,58.9l0.4,0.9c0.1,0.3,0.1,0.6,0.2,1c0.1,0.5,0.1,1.2,0.2,2l0.3,6.3v3.6c0.4,4.2,0.4,4.2,0.5,10.3
			c0,6.1,0.1,10.9,0.6,14.5c0.2,1.6,0.4,2.8,0.6,3.4h0.1c2.1,1.2,2.7,1.3,3,3c0.3,1.7-0.9,3.3-2.6,3.6c-0.9,0.1-1.6,0-2.4-0.5
			c-0.1-0.1-0.1-0.1-0.2-0.1l-0.3-0.2c-0.1-0.1-0.3-0.2-0.5-0.3c-2.1-1.3-2.8-2.7-3.3-4.5l-0.6,1.3c-2.9,5.2-7.6,7.1-12.8,3.2
			c-6-4.3-8-19.5-6.2-32.4c1.1-7.3,3.1-12.8,6.1-16.3c3.9-4.6,8.9-5.8,15.2-2.8C336.2,55.7,336.8,57.5,336.3,58.9z M331.2,73.2
			l-0.2-1.5c-0.5-3.2-0.8-5.7-0.9-7.3c0-0.1,0-0.4-0.1-1c-0.1-1.4-0.3-2.5,0.1-3.6c-2.3-0.6-4.3,0-5.9,1.9
			c-4.4,5.5-6.4,19.3-4.6,30.2c0.8,5.3,2,8.5,3.6,9.7c1.7,1.3,2.4,1,3.6-1.2C330.1,94.7,331.1,82.5,331.2,73.2z"/>
		<path class="st2" d="M355.9,85.1l-0.6-7.9c-0.3-3.5-0.8-10.2-0.9-15c-0.1-2.4-0.1-4.7-0.1-7.1c0-1.7,1.4-3.1,3.1-3.1
			c1.7,0,3.1,1.4,3.1,3.1v0.5l0.1-0.3c1.2-2.3,2.8-3.6,4.6-4.2c1.4-0.5,3-0.8,4.4-0.4c1.4,0.4,2,0.6,3.3,1.2l1,0.5
			c1.6,0.8,2.3,2.5,1.7,3.9c4.3,8.3,3.8,21.4,2,41c-0.5,6.4-4.2,10.6-7.6,11.4c-2,0.3-4.1-0.4-6-2c-0.2-0.1-0.4-0.3-0.5-0.5
			c0.3,8.6,0.3,16.3-0.2,23.1c-0.1,1.7-1.6,3-3.3,2.9c-1.7-0.1-3-1.6-2.9-3.3c0.8-9.1,0.5-21.2-0.6-36.5
			C356.3,91,356.2,88.7,355.9,85.1z M369,102.4c0.1,0,0.3-0.2,0.6-0.5c1.1-1.4,1.7-3.2,1.8-5.3c1.7-19,2.3-33.2-2.1-38.7
			c-0.2-0.3-0.3-0.5-0.4-0.9c-1.2-0.4-1.9-0.3-2.8,1.3c-0.5,1.2-1.1,2.7-1.5,4.7c-1.7,8-1.4,21.2,0.6,30.8c1,4.5,1.9,7.2,2.9,8
			C368.5,102.2,368.8,102.4,369,102.4z"/>
		<path class="st2" d="M403.7,56.1l2.5,7.7l0.4,1.4c1.1-2.7,2.1-6.4,3.1-11.4c1.8-9,3-16.3,3.3-21.8c0.1-1.7,1.6-3,3.3-2.9
			c1.7,0.1,3,1.6,2.9,3.3c-0.3,5.9-1.5,13.4-3.4,22.6c-1.2,5.4-2.3,9.5-3.4,12.7c-0.8,1.9-1.6,3.4-2.4,4.5l-0.9,1
			c0.6,4,1,9.9,1,17.5c0,7.6,0.1,12.4,0.2,14.3c0.1,1.7-1.2,3.2-2.9,3.3c-1.7,0.1-3.2-1.2-3.3-2.9c-0.3-4.3-0.3-8-0.2-11.3
			c0.2-6.3,0.1-14.8-1.1-20.9c0-0.1,0-0.1-0.1-0.2c-0.1-0.1-0.1-0.1-0.1-0.2c0-0.1,0-0.1-0.1-0.2l-0.1-0.5l-0.5-1.6l-1.6-4.7
			l-2.6-7.7c-0.3-1-1.7-5-4.3-12.2c-1.8-5.3-3.2-9.4-4.1-12.8c-0.4-1.6,0.5-3.3,2.3-3.8c1.6-0.4,3.3,0.5,3.8,2.3
			c0.8,2.7,2,6.8,4,12.1C401.5,49.8,402.9,54,403.7,56.1z"/>
		<path class="st2" d="M441.1,51.2h1.7c1.1,0,1.9,0.4,2.6,1.3c0.3,0.1,2.3,1.2,3,1.9c0.6,0.6,1.4,1.9,2.1,3.9c1.6,4,2.7,15,2.8,25.4
			c0.1,5.9-0.2,10.8-0.9,14.9c-0.5,4.6-1.8,8.5-4.1,10.3c-2.6,2-8,1.6-10.5,0.2c-2.7-1.4-4.2-5.5-5-10.5c-1.6-9-1.9-22.6-1.1-32.6
			c0.5-5.7,1.5-9.4,2.7-11.3c1.3-1.9,2.8-3.1,4.5-3.4C439.5,51.2,440.2,51.2,441.1,51.2z M444.8,60.6l-0.6-1.7l-0.4-0.2l-1.8-1.2
			c-0.1,0-0.1,0-0.2-0.1h-1.4c-0.1,0.1-0.3,0.4-0.6,0.8c-0.6,1-1.2,3.8-1.6,8.4c-0.9,9.4-0.6,22.7,1,30.9c0.3,2,0.8,3.8,1.3,4.9
			c0.2,0.5,0.4,1.1,0.8,1.4c0.5,0.2,1.2,0.3,2,0.3c0.5,0,1.1,0,1.5-0.1c0.3-0.3,0.5-0.9,0.8-1.6c0.4-1.2,0.8-2.7,1.1-4.7
			c1.2-7.3,0.9-19.1,0-28.1C445.8,65,445.3,62,444.8,60.6z"/>
		<path class="st2" d="M476.6,101.1l0.8,1.4l1.1,0.3c0.3-0.1,0.6-0.6,1-1.5c0.5-1.4,1.1-3.8,1.4-7.3c0.9-11.7,0.6-15.3,0.1-27.1
			c-0.3-5.9-0.4-10.5-0.4-13.9c0-1.7,1.4-3.1,3.1-3.1c1.7,0,3.1,1.4,3.1,3.1c0,3.1,0.1,7.6,0.4,13.6c0.5,12,0.8,16.1-0.1,28.1
			c-0.9,8.2-2.5,11.9-5.6,13.6c-4.2,2.3-8.8-0.2-10.6-4.8c-0.6-1.6-1.2-3.6-1.7-6.2c-0.6-4-1.2-9.4-1.5-16.5
			c-0.1-2.1-0.1-5.1-0.2-9.1c-0.2-7.8-0.4-15.5-1.3-18.8c-0.4-1.6,0.5-3.3,2.3-3.8c1.6-0.4,3.3,0.5,3.8,2.3c1.2,4,1.3,12.1,1.5,20
			c0.2,7.8,0.3,17.6,1.6,24.9C475.6,98.2,476.1,99.9,476.6,101.1z"/>
		<path class="st2" d="M504,54v0.8c2.4-1.7,5.3-2.3,8.7-1.7c1.7,0.3,2.9,1.9,2.6,3.6c-0.3,1.7-1.9,2.9-3.6,2.6
			c-4.4-0.9-6.3,1.8-6.8,8.6c-0.1,1-0.1,1.9-0.1,3c0.1,2,0.2,3.9,0.2,6l0.4,4.9c0.3,2.6,0.4,4.4,0.4,5.6c0.2,7.5,0.3,11.9,0.2,13.3
			v0.8c0.1,0.8,0.2,1.2,0.2,1.4c0,1.8-0.3,3.6-2.5,4.4c-1,0.3-1.9,0.1-2.9-0.5c-1.6-1-2.1-2.6-1.7-4.8c0.3-1.3,0.4-1.5,0.1-3.2
			c-0.1-1-0.1-1.7-0.2-2.3c-0.1-1.6-0.2-3.6-0.1-6.2v-5.8l-0.2-7.6c-0.1-1.9-0.2-3.8-0.2-5.4c-0.5-10.6-0.8-16.3-0.8-17.2
			c0-1.7,1.3-3.2,3-3.2C502.5,51,504,52.3,504,54z"/>
		<path class="st2" d="M532.7,86.2v-7l-0.9-14.5l-0.5-7.3c-0.2-3.8-0.3-5.9-0.4-6.4c0-0.3,0-1-0.1-2.1c-0.1-1.2-0.3-2.5-0.4-3.9
			c-0.3-2.8-0.4-6.9,0-10c0.3-2.1,1.1-4.4,3.2-5.4c5.6-2.3,10.9,1.9,15.3,7.6c7.3,9.3,10,18,11.4,26.7c1.6,8.9,1.1,18.8-1.8,26.9
			c-2.9,8.3-9.7,15.7-19.2,19.6c-1.4,0.5-2.5,0.2-3.4-0.8c-0.9,0.3-2.5,0.2-3.4-1.2c-0.5-0.6-0.8-1.4-0.6-2.3c0.5-3.9,0.9-9,1-12.9
			C532.8,91.7,532.8,89.2,532.7,86.2z M537.6,57.3l0.5,8c0.1,2.3,0.8,12.1,0.8,15.9c0,1.9,0,4.4,0.1,7.5c0.1,6.2-0.2,10.8-0.6,15.5
			c9-4.3,14.6-12.3,16.1-21.7c1.5-9.3,0.2-19.5-3.3-29.4c-1.4-3.9-3.8-7.8-7.1-12c-1.8-2.4-3.4-4.1-4.9-5c-1-0.5-1.7-0.9-2.4-0.9
			c-0.1,0.2-0.1,0.4-0.2,0.8c-0.3,2.5-0.1,6.1,0.1,8.8l0.3,3.6l0.2,2.1C537.1,50.8,537.2,53,537.6,57.3z"/>
		<path class="st2" d="M577.6,54v0.8c2.4-1.7,5.3-2.3,8.7-1.7c1.7,0.3,2.9,1.9,2.6,3.6c-0.3,1.7-1.9,2.9-3.6,2.6
			c-4.4-0.9-6.3,1.8-6.8,8.6c-0.1,1-0.1,1.9-0.1,3c0.1,2,0.2,3.9,0.2,6l0.4,4.9c0.3,2.6,0.4,4.4,0.4,5.6c0.2,7.5,0.3,11.9,0.2,13.3
			v0.8c0.1,0.8,0.2,1.2,0.2,1.4c0,1.8-0.3,3.6-2.5,4.4c-1,0.3-1.9,0.1-2.9-0.5c-1.6-1-2.1-2.6-1.7-4.8c0.3-1.3,0.4-1.5,0.1-3.2
			c-0.1-1-0.1-1.7-0.2-2.3c-0.1-1.6-0.2-3.6-0.1-6.2v-5.8l-0.2-7.6c-0.1-1.9-0.2-3.8-0.2-5.4c-0.5-10.6-0.8-16.3-0.8-17.2
			c0-1.7,1.3-3.2,3-3.2C576.1,51,577.6,52.3,577.6,54z"/>
		<path class="st2" d="M604.6,81.4c0.3,7.2,1.2,12.7,2.4,16.2c1.3,4.2,4.8,5.5,7.1,2.8c1.2-1.3,3.1-1.5,4.4-0.3
			c1.3,1.2,1.5,3.1,0.3,4.4c-3,3.4-7.1,4.4-10.6,3c-6.9-2.6-7.9-9.2-9-17.9c-1.1-8.6-1.4-18.8,0.2-26c1-4.6,2.5-7.9,4.7-9.8
			c3.1-2.6,6.5-2.1,9.4,0.1c4.2,3.3,7.4,11.3,7.5,17.6c0.1,4-0.9,6.9-3,8.7c-1,0.9-2.7,1.1-4.1,1.2c-1.2,0.1-2.7,0.1-4.5,0.1
			C608,81.5,606.4,81.5,604.6,81.4z M614.3,75c0.4-0.6,0.6-1.7,0.5-3.3c-0.1-4.8-2.7-10.9-5.1-13c-0.4-0.3-0.8-0.4-1-0.4
			c-0.1-0.1-0.3,0-0.5,0.2c-2.3,1.8-3.6,8.5-3.6,16.6c1.9,0.1,3.5,0.1,4.9,0.1c1.6,0,3,0,4-0.1C613.7,75.1,614,75.1,614.3,75z"/>
		<path class="st2" d="M654.4,58.9l0.4,0.9c0.1,0.3,0.1,0.6,0.2,1c0.1,0.5,0.1,1.2,0.2,2l0.3,6.3v3.6c0.4,4.2,0.4,4.2,0.5,10.3
			c0,6.1,0.1,10.9,0.6,14.5c0.2,1.6,0.4,2.8,0.6,3.4h0.1c2.1,1.2,2.7,1.3,3,3c0.3,1.7-0.9,3.3-2.6,3.6c-0.9,0.1-1.6,0-2.4-0.5
			c-0.1-0.1-0.1-0.1-0.2-0.1l-0.3-0.2c-0.1-0.1-0.3-0.2-0.5-0.3c-2.1-1.3-2.8-2.7-3.3-4.5l-0.6,1.3c-2.9,5.2-7.6,7.1-12.8,3.2
			c-6-4.3-8-19.5-6.2-32.4c1.1-7.3,3.1-12.8,6.1-16.3c3.9-4.6,8.9-5.8,15.2-2.8C654.3,55.7,654.9,57.5,654.4,58.9z M649.3,73.2
			l-0.2-1.5c-0.5-3.2-0.8-5.7-0.9-7.3c0-0.1,0-0.4-0.1-1c-0.1-1.4-0.3-2.5,0.1-3.6c-2.3-0.6-4.3,0-5.9,1.9
			c-4.4,5.5-6.4,19.3-4.6,30.2c0.8,5.3,2,8.5,3.6,9.7c1.7,1.3,2.4,1,3.6-1.2C648.2,94.7,649.2,82.5,649.3,73.2z"/>
		<path class="st2" d="M685.8,51c2.5,0.6,4.4,2.9,5.7,6.9c0.5-1.2,1.3-2.5,2.3-3.6c1-1.2,3-2.9,4.8-3c1,0,2,0.2,3.3,0.6
			c2.9,1.3,3.8,5.4,4.5,10.1c1,7.8,1.1,20.8,1.1,26.8c0,3,0,6.2-0.1,9.6c-0.1,3.3-0.1,5.4-0.1,5.9c0,1.7-1.4,3.1-3.1,3.1
			c-1.7,0-3.1-1.4-3.1-3.1c0-0.5,0-2.6,0.1-5.9c0.1-3.3,0.1-6.5,0.1-9.4c0-4.3,0-19.1-1-26.1c-0.3-2-0.6-3.5-1-4.6
			c-0.1-0.2-0.1-0.4-0.2-0.5c-0.3,0.2-0.8,0.8-1.3,1.6c-1.1,1.8-1.7,3.6-2,5.6c-0.4,2.4-1,8-1.6,17.2c0.1,0.8,0.1,1.6,0.1,2.4V88
			c0,1.6,0,5.4-0.1,11.4v6.7c-0.1,0.6-0.3,1.2-0.6,1.7c-1,1.3-2.1,1.7-3.6,1.2c-1.3-0.4-2-1.6-2.4-3.2c-0.1-0.5-0.1-1.1-0.2-1.8
			c-0.1-1.2-0.1-2.8-0.1-4.8c0.1-3.3,0.2-7.7,0.5-13.2l0.2-4.1c-0.1-9.1-0.9-17.1-2.3-21.7c-0.3-1-0.6-1.9-0.9-2.4l-0.3-0.4
			c-0.1-0.1-0.2-0.2-0.2-0.3c-0.3-0.1-0.5,0-0.6,0.1c-0.3,0.3-0.8,1-1.1,1.9c-0.5,1.3-1.1,3.4-1.5,6.5c-0.2,1.3-0.4,6-0.8,14.2
			c0.2,2.5,0.3,4.6,0.4,6.4c0.1,5.4,0,10.4-0.3,15.1v0.3c0,0.1,0,0.3,0.1,0.6v1c0.1,0.8,0,1.4-0.1,1.9c-0.8,2.9-3.9,3.1-5.6,1.5
			c-0.5-0.6-0.9-1.3-0.9-1.8c0-0.1,0-0.3-0.1-0.6c0-0.3,0-0.9-0.1-1.4v-4.3c0-3.3,0.1-7.6,0.2-12.8c0-1.9,0-3.9,0.1-5.9
			c-0.1-0.9-0.2-2.1-0.3-3.9l-0.3-2.9c-0.5-5.3-1.3-11.4-2.5-18.5c-0.3-1.7,1-3.3,2.7-3.6c1.6-0.3,3.2,1,3.5,2.6l0.2,1.7
			C678.7,52.7,681.2,49.8,685.8,51z"/>
		<path class="st3" d="M93.3,23c0,15.3-13,25.8-22.2,31.4c-2,1.2-3.1-1-4.9-1.9c-2.7-1.3-5.5-2.1-5.5-2.1s-0.1,2.5-2.5,0.3
			c-1.2-1.1-5.6,3.4-7.5,2.2C41.8,47,31,37,31,23c0-10.1,7.5-18.3,16.8-18.3c6.1,0,11.4,3.5,14.3,8.7c3-5.2,8.3-8.7,14.3-8.7
			C85.8,4.6,93.3,12.8,93.3,23z"/>
		<path class="st4" d="M87.9,21.2C88,21.2,88,21.2,87.9,21.2c0.4-0.1,0.7-0.4,0.6-0.7c-0.9-5.4-4.1-9.8-8.7-12
			c-0.3-0.1-0.7,0-0.8,0.3c-0.1,0.3,0,0.7,0.3,0.8c4.3,2,7.3,6.1,8.1,11.1C87.4,21,87.6,21.2,87.9,21.2z"/>
		<path class="st4" d="M88,26c0.3,0,0.6-0.2,0.6-0.5c0-0.4,0.1-0.8,0.1-1.2c0-0.3-0.2-0.6-0.6-0.6c-0.3,0-0.6,0.2-0.6,0.6
			c0,0.4,0,0.8-0.1,1.2C87.4,25.7,87.6,26,88,26C88,26,88,26,88,26z"/>
		<path class="st5" d="M68.6,53.7c9.2-5.6,21.9-16,21.9-31.2c0-8.6-5.5-15.9-12.9-17.8c8.8,0.6,15.7,8.6,15.7,18.3
			c0,15.6-13.5,26.3-22.7,31.7"/>
		<path class="st5" d="M40.1,31.8c0.1,1.5-2,2.1-2.7,0.7c-1.4-2.8-2.2-5.8-2.2-9.2c0-7.2,5.3-13.1,11.8-13.1c1.4,0,2.8,0.3,4,0.8
			c1.2,0.5,1.2,2.2,0,2.6C46.4,15.4,39.5,20.1,40.1,31.8z"/>
		<path class="st8" d="M26.5,78.6c-0.2,6.6-0.7,13.3-0.7,20c0,3.2,0.1,6.5,0.2,9.7c0.1,1.9-1.3,5.5,0.1,7.1c1.2,1.4,4.3,1.5,6.1,2
			c3.1,0.8,6.3,1.2,9.4,2.1c5.4,1.5,11.8,1.9,17.4,2.7c2.8,0.4,6.1-1.3,8.7-1.9c4-1,7.9-1.9,12-2.8c2.7-0.6,5.2-1.4,7.9-2.1
			c1.5-0.4,6.2-0.8,7.1-2.2c2.5-3.7,1.9-9.9,1.9-14.1c0-3.4-0.1-6.7-0.3-10c-0.2-3.4-0.1-6.7-0.1-10.1c1.3,0.1,2.5,0.1,3.5-0.3
			c4.3-1.6-0.5-8.8-1.3-10.8c-0.8-1.9-2.1-3.6-3.3-5.4c-0.9-1.2-1.4-2.9-2.7-3.9c-1.3-0.9-3.8-1.3-5.4-1.7
			c-3.1-0.7-7.3-1.5-10.2-2.7c-2.1-0.9-4.8-0.8-7-1.4c-1.6-0.4-3.5-1-4.9-1.8c-0.6-0.4-1.1-0.8-1.8-1c-0.7-0.2-1.4-0.4-2.1-0.5
			c-1-0.1-1.9,0-2.9,0.2c-1,0.3-1.8,0.8-2.8,0.9c-0.7,0.1-1.2,0.1-1.9,0.3c-0.9,0.2-1.7,0.5-2.6,0.8c-2.6,0.9-5.2,1.8-7.9,2.5
			c-3,0.8-5.9,1.9-8.8,2.9c-2.2,0.7-4.7,0.7-6.8,1.8c-0.2,0.1-0.4,0.3-0.4,0.4c-0.3,0.1-0.5,0.3-0.6,0.5c-1.1,3.8-2.7,7.4-3.7,11.2
			c-0.5,1.9-1.8,4.8-0.4,6.5C23,78.4,24.8,78.6,26.5,78.6z M68.1,54.4c3.9,1.2,8.4,2.1,12.5,2.7c2.4,0.4,4.6,1.4,7,1.9
			c1.9,0.4,3.8,0.8,4.5,2.5c0.6,1.3,1.7,2.4,2.5,3.6c1.8,2.7,2.9,5.7,4.4,8.6c2.3,4.7-3.5,3.3-6.2,3c-2.2-0.2-4.3-0.4-6.5-0.7
			c-4.8-0.7-9.7-1.5-14.6-2c-5.1-0.5-5.1-8.3-6-11.6c-1-3.6-2.7-7.1-3.7-10.8C64.1,52.5,66,53.7,68.1,54.4z M64.6,67.2
			c0.4,2.5,2.1,8.3,5.6,8.5c5.2,0.3,10.5,1.2,15.6,2.1c2.5,0.4,4.9,0.5,7.4,0.8c0.3,0,0.7,0.1,1.1,0.1c0,4.5-0.2,8.9,0.5,13.4
			c0.9,5.8,0,12.7-1,18.4c-0.4,2.3-4.6,2.7-6.6,3.2c-3,0.7-5.8,1.6-8.7,2.3c-2.8,0.6-5.4,1-8.1,1.7c-3.2,0.9-6,1.9-9.1,2.2
			c0-2.5,0.6-4.9,0.7-7.4c0.1-3.4,0.2-7.1,0.8-10.5c1-5.1,0.5-10.6,0.5-15.7c-0.1-9.7-0.9-19.4-1.4-29.1
			C62.9,60.5,64.1,63.7,64.6,67.2z M60,60.2c0.2,9.7,1.4,19.5,1.5,29.2c0.1,4.5-0.4,8.9-0.7,13.4c-0.3,5.7-1.5,11.5-1.4,17.2
			c-0.7,0-1.4,0-2.1-0.1c-5.2-0.7-10.9-1.1-15.9-2.5c-2.2-0.6-4.7-1.3-6.9-1.6c-1.5-0.2-3-0.7-4.5-1c-3.1-0.6-2.7-1.6-2.2-4
			c1-5.2-0.2-11.3,0-16.6c0.2-5.2,0.5-10.5,0.4-15.7c0.9-0.1,1.7-0.1,2.2-0.2c3.2-0.3,7.9-0.4,11-1.4c6-1.8,12,0.4,15.4-5.3
			c1.8-3.1,2.1-7.1,3-10.5C59.9,60.8,59.9,60.5,60,60.2z M24.2,72.3c0.2-3.9,2.6-8.1,3.8-11.9c0.1,0,0.2,0,0.2-0.1
			c2.8-1.5,7.5-2.2,10.7-3.1c4.6-1.3,9.3-2.8,13.7-4.3c1.6-0.6,3.5-0.6,5.1-1.1c3.6-1.1,1.4,4.6,1.1,6.2C58,62.4,57.3,68.2,54.7,72
			c-2.1,3-8.1,2.7-11.7,3.3c-3.8,0.6-7.7,0.7-11.4,1.4c-1.8,0.3-3.7,0.3-5.5,0.3C22.6,76.9,24.1,74.1,24.2,72.3z"/>
		<path class="st8" d="M25.8,38.6c-0.4,0-0.8-0.2-1.1-0.5c-0.4-0.5-10-13.2-13.1-20c-0.3-0.7,0-1.5,0.7-1.8c0.7-0.3,1.5,0,1.8,0.7
			c2.9,6.5,12.6,19.4,12.7,19.5c0.5,0.6,0.3,1.4-0.3,1.9C26.4,38.5,26.1,38.6,25.8,38.6z"/>
		<path class="st8" d="M92.4,45.5c-0.3,0-0.5-0.1-0.8-0.3c-0.6-0.4-0.7-1.3-0.3-1.9c4.2-5.8,10.3-20.7,10.4-20.8
			c0.3-0.7,1.1-1,1.8-0.7c0.7,0.3,1,1.1,0.7,1.8c-0.3,0.6-6.3,15.3-10.7,21.4C93.2,45.3,92.8,45.5,92.4,45.5z"/>
		<path class="st8" d="M22.1,54.3c0,0-0.1,0-0.1,0c-0.4,0-10.6-0.9-17.7-3.2c-0.7-0.2-1.1-1-0.9-1.7c0.2-0.7,1-1.1,1.7-0.9
			c6.8,2.2,17,3.1,17.1,3.1c0.7,0.1,1.3,0.7,1.2,1.5C23.4,53.8,22.8,54.3,22.1,54.3z"/>
		<path class="st8" d="M93.8,53.2c-0.4,0-0.9-0.2-1.1-0.6c-0.4-0.6-0.2-1.5,0.4-1.9c6-3.8,13.1-11.2,13.2-11.3
			c0.5-0.5,1.4-0.6,1.9,0c0.5,0.5,0.6,1.4,0,1.9C108,41.6,100.9,49,94.5,53C94.3,53.2,94.1,53.2,93.8,53.2z"/>
		<path class="st8" d="M13.9,41.6c-0.1,0-0.2,0-0.3,0c-0.2,0-5.1-1.1-10.6-6.5c-0.5-0.5-0.6-1.4,0-1.9c0.5-0.5,1.4-0.6,1.9,0
			c5,4.8,9.3,5.8,9.3,5.8c0.7,0.2,1.2,0.9,1,1.6C15,41.1,14.5,41.6,13.9,41.6z"/>
	</g>
</g>
</svg>
